<svg xmlns="http://www.w3.org/2000/svg" fill="none" viewBox="0 0 33 33">
<style>
    path, circle {
      fill: #000;
    }
    @media (prefers-color-scheme: dark) {
      path, circle {
        fill: #fff;
      }
    }
  </style>
  <path d="M16.408 2.572c4.135 0 7.44 1.352 9.913 4.058 2.473 2.705 3.71 6.145 3.71 10.319 0 4.019-1.16 7.304-3.479 9.855-2.357 2.512-5.642 3.768-9.854 3.768-3.827 0-7.112-1.16-9.856-3.479-2.744-2.318-4.115-5.835-4.115-10.55 0-4.715 1.371-8.213 4.115-10.493 2.706-2.319 5.894-3.478 9.566-3.478Zm-.232 7.71c-2.667 0-4.619.618-5.855 1.855-1.237 1.237-1.855 2.744-1.855 4.522 0 1.932.695 3.459 2.087 4.58 1.352 1.082 3.265 1.623 5.739 1.623 2.241 0 4.135-.503 5.68-1.508 1.547-1.043 2.32-2.589 2.32-4.637 0-1.933-.715-3.479-2.145-4.638-1.469-1.198-3.46-1.797-5.971-1.797Z"/>
  <circle cx="12.694" cy="19.418" r="4.529" />
</svg>