<svg xmlns="http://www.w3.org/2000/svg" fill="none" viewBox="0 0 68 80"><path fill="#000" d="M49.23 71.612a3.406 3.406 0 1 1-6.813 0 3.406 3.406 0 0 1 6.812 0Z"/><path fill="#000" d="M48.616 58.943c3.11 0 5.595 1.017 7.455 3.052 1.86 2.034 2.79 4.621 2.79 7.76 0 3.023-.872 5.493-2.616 7.411-1.773 1.89-4.243 2.834-7.41 2.834-2.878 0-5.349-.872-7.412-2.616-2.064-1.743-3.096-4.388-3.096-7.934 0-3.546 1.032-6.176 3.096-7.891 2.034-1.744 4.432-2.616 7.193-2.616Zm-.174 5.799c-2.006 0-3.473.465-4.403 1.394-.93.93-1.395 2.064-1.395 3.401 0 1.453.523 2.601 1.569 3.444 1.017.814 2.456 1.22 4.316 1.22 1.686 0 3.11-.377 4.272-1.133 1.163-.784 1.744-1.947 1.744-3.487 0-1.454-.538-2.616-1.613-3.488-1.104-.901-2.601-1.352-4.49-1.352ZM58.425 41.18v14.998h-4.97v-4.796H40.682v4.796h-4.97V45.54h17.743v-4.36h4.97ZM13.194 58.943c3.11 0 5.595 1.017 7.455 3.052 1.86 2.034 2.79 4.621 2.79 7.76 0 3.023-.871 5.493-2.615 7.411C19.05 79.056 16.58 80 13.412 80c-2.877 0-5.347-.872-7.41-2.616-2.064-1.743-3.096-4.388-3.096-7.934 0-3.546 1.032-6.176 3.095-7.891 2.035-1.744 4.432-2.616 7.193-2.616Zm-.174 5.799c-2.005 0-3.473.465-4.403 1.394-.93.93-1.395 2.064-1.395 3.401 0 1.453.523 2.601 1.57 3.444 1.016.814 2.455 1.22 4.315 1.22 1.686 0 3.11-.377 4.273-1.133 1.162-.784 1.744-1.947 1.744-3.487 0-1.454-.538-2.616-1.614-3.488-1.104-.901-2.6-1.352-4.49-1.352ZM23.003 41.18v14.998h-4.97v-4.796H5.26v4.796H.29V45.54h17.744v-4.36h4.97Z"/><path fill="#000" d="M13.807 71.612a3.406 3.406 0 1 1-6.811 0 3.406 3.406 0 0 1 6.811 0Z"/><g fill="#000" opacity=".5"><path d="M58.425 23.555v14.997h-4.97v-4.796H40.682v4.796h-4.97V27.914h17.743v-4.36h4.97ZM42.992 0v1.918L58.425 8.24l4.927 1.874V7.542h4.36v10.856h-4.36v-3.14L58.73 13.69l-15.738 6.888v2.006h-4.229V12.556h4.23v1.962l9.067-4.011v-.262l-9.068-2.964v1.7h-4.229V0h4.23ZM23.003 23.555v14.997h-4.97v-4.796H5.26v4.796H.29V27.914h17.744v-4.36h4.97ZM7.57 0v1.918L23.004 8.24l4.927 1.874V7.542h4.36v10.856h-4.36v-3.14l-4.621-1.569L7.57 20.577v2.006H3.34V12.556h4.23v1.962l9.067-4.011v-.262L7.572 7.281v1.7H3.34V0h4.23Z"/></g></svg>